<?xml version="1.0" encoding="UTF-8"?>
<!DOCTYPE svg PUBLIC "-//W3C//DTD SVG 1.1//EN" "https://www.w3.org/Graphics/SVG/1.1/DTD/svg11.dtd">

<svg xmlns="http://www.w3.org/2000/svg" xmlns:xlink="http://www.w3.org/1999/xlink" width="311" height="182" version="1.1">
  <defs>
    <marker id="arrowAdorn" viewBox="0 0 16 16" refX="16" refY="8" markerWidth="16" markerHeight="16" orient="auto" stroke-width="1">
      <path stroke="navy" fill="none" d="M 0 0 L 16 8 L 0 16"/>
    </marker>
    <marker id="triangleAdorn" viewBox="0 0 16 16" refX="16" refY="8" markerWidth="16" markerHeight="16" orient="auto" stroke-width="1">
      <path stroke="blue" fill="white" d="M 0 0 L 16 8 L 0 16 Z"/>
    </marker>
    <symbol id="enumIcon" viewBox="0 0 32 32">
      <path d="M 1 1 h 30 v 30 h -30 v -30 z" stroke-width="1"/>
      <path d="M 1 10 h 30" stroke-width="1"/>
    </symbol>
    <symbol id="classIcon" viewBox="0 0 32 32">
      <path d="M 1 1 h 30 v 30 h -30 v -30 z M 1 10 h 30 M 1 21 h 30" stroke-width="1"/>
    </symbol>
    <symbol id="interfaceIcon" viewBox="0 0 32 32">
      <circle cx="16" cy="16" r="14" stroke-width="1"/>
    </symbol>
    <symbol id="packageIcon" viewBox="0 0 32 32">
      <path d="M 1 1 h 30 v 30 h -30 v -30 z" stroke-width="1"/>
      <path d="M 1 10 h 21 l 9 -9" stroke-width="1"/>
    </symbol>
    <symbol id="componentIcon" viewBox="0 0 32 32">
      <path d="M 8 1 h 24 v 30 h -24 z " stroke-width="1"/>
      <path d="M 1 5 h 16 v 8 h -16 z " stroke-width="1"/>
      <path d="M 1 18 h 16 v 8 h -16 z " stroke-width="1"/>
    </symbol>
    <style type="text/css"><![CDATA[
.classifier { 
  fill: cyan; 
  stroke: blue; 
  stroke-width: 1; 
} 

.package { 
  fill: lime; 
  stroke: green; 
  stroke-width: 1; 
} 
]]></style>
  </defs>
  <g>
    <rect x="0px" y="0px" width="311px" height="182px" stroke="Maroon" fill="LightYellow" rx="0px" ry="0px">
      <title></title>
    </rect>
    <g>
      <rect x="10px" y="10px" width="136px" height="27px" stroke="none" fill="none" rx="0px" ry="0px">
        <title></title>
      </rect>
      <g>
        <rect x="10px" y="10px" width="136px" height="27px" stroke="blue" fill="cyan" rx="0px" ry="0px">
          <title></title>
        </rect>
        <g>
          <use xlink:href="#classIcon" x="14" y="14" width="18px" height="18px" stroke="blue" fill="cyan">
            <title></title>
          </use>
          <text x="33" y="32" width="110px" height="18px" fill="blue" stroke="none" font-size="16px" font-family="Courier" font-weight="bold">
            <title></title>GrandFather
          </text>
        </g>
      </g>
      <g>
        <rect x="10px" y="37px" width="136px" height="0px" stroke="blue" fill="cyan" rx="0px" ry="0px">
          <title></title>
        </rect>
      </g>
      <g>
        <rect x="10px" y="37px" width="136px" height="0px" stroke="blue" fill="cyan" rx="0px" ry="0px">
          <title></title>
        </rect>
      </g>
      <g>
        <rect x="10px" y="37px" width="136px" height="0px" stroke="blue" fill="cyan" rx="0px" ry="0px">
          <title></title>
        </rect>
      </g>
    </g>
    <g>
      <rect x="100px" y="100px" width="86px" height="27px" stroke="none" fill="none" rx="0px" ry="0px">
        <title></title>
      </rect>
      <g>
        <rect x="100px" y="100px" width="86px" height="27px" stroke="blue" fill="cyan" rx="0px" ry="0px">
          <title></title>
        </rect>
        <g>
          <use xlink:href="#classIcon" x="104" y="104" width="18px" height="18px" stroke="blue" fill="cyan">
            <title></title>
          </use>
          <text x="123" y="122" width="60px" height="18px" fill="blue" stroke="none" font-size="16px" font-family="Courier" font-weight="bold">
            <title></title>Father
          </text>
        </g>
      </g>
      <g>
        <rect x="100px" y="127px" width="86px" height="0px" stroke="blue" fill="cyan" rx="0px" ry="0px">
          <title></title>
        </rect>
      </g>
      <g>
        <rect x="100px" y="127px" width="86px" height="0px" stroke="blue" fill="cyan" rx="0px" ry="0px">
          <title></title>
        </rect>
      </g>
      <g>
        <rect x="100px" y="127px" width="86px" height="0px" stroke="blue" fill="cyan" rx="0px" ry="0px">
          <title></title>
        </rect>
      </g>
    </g>
    <g>
      <rect x="250px" y="150px" width="56px" height="27px" stroke="none" fill="none" rx="0px" ry="0px">
        <title></title>
      </rect>
      <g>
        <rect x="250px" y="150px" width="56px" height="27px" stroke="blue" fill="cyan" rx="0px" ry="0px">
          <title></title>
        </rect>
        <g>
          <use xlink:href="#classIcon" x="254" y="154" width="18px" height="18px" stroke="blue" fill="cyan">
            <title></title>
          </use>
          <text x="273" y="172" width="30px" height="18px" fill="blue" stroke="none" font-size="16px" font-family="Courier" font-weight="bold">
            <title></title>Son
          </text>
        </g>
      </g>
      <g>
        <rect x="250px" y="177px" width="56px" height="0px" stroke="blue" fill="cyan" rx="0px" ry="0px">
          <title></title>
        </rect>
      </g>
      <g>
        <rect x="250px" y="177px" width="56px" height="0px" stroke="blue" fill="cyan" rx="0px" ry="0px">
          <title></title>
        </rect>
      </g>
      <g>
        <rect x="250px" y="177px" width="56px" height="0px" stroke="blue" fill="cyan" rx="0px" ry="0px">
          <title></title>
        </rect>
      </g>
    </g>
    <path stroke="navy" fill="none" d="M 100 113 L 78 113 L 78 37 " opacity="1" marker-end="url(#triangleAdorn)"/>
    <path stroke="navy" fill="none" d="M 278 150 L 278 113 L 186 113 " opacity="1" marker-end="url(#triangleAdorn)"/>
  </g>
</svg>
