<?xml version="1.0" encoding="UTF-8"?>
<!DOCTYPE svg PUBLIC "-//W3C//DTD SVG 1.1//EN" "https://www.w3.org/Graphics/SVG/1.1/DTD/svg11.dtd">

<svg xmlns="http://www.w3.org/2000/svg" xmlns:xlink="http://www.w3.org/1999/xlink" width="570" height="145" version="1.1">
  <defs>
    <marker id="arrowAdorn" viewBox="0 0 16 16" refX="16" refY="8" markerWidth="16" markerHeight="16" orient="auto" stroke-width="1">
      <path stroke="navy" fill="none" d="M 0 0 L 16 8 L 0 16"/>
    </marker>
    <marker id="triangleAdorn" viewBox="0 0 16 16" refX="16" refY="8" markerWidth="16" markerHeight="16" orient="auto" stroke-width="1">
      <path stroke="blue" fill="white" d="M 0 0 L 16 8 L 0 16 Z"/>
    </marker>
    <symbol id="enumIcon" viewBox="0 0 32 32">
      <path d="M 1 1 h 30 v 30 h -30 v -30 z" stroke-width="1"/>
      <path d="M 1 10 h 30" stroke-width="1"/>
    </symbol>
    <symbol id="classIcon" viewBox="0 0 32 32">
      <path d="M 1 1 h 30 v 30 h -30 v -30 z M 1 10 h 30 M 1 21 h 30" stroke-width="1"/>
    </symbol>
    <symbol id="interfaceIcon" viewBox="0 0 32 32">
      <circle cx="16" cy="16" r="14" stroke-width="1"/>
    </symbol>
    <symbol id="packageIcon" viewBox="0 0 32 32">
      <path d="M 1 1 h 30 v 30 h -30 v -30 z" stroke-width="1"/>
      <path d="M 1 10 h 21 l 9 -9" stroke-width="1"/>
    </symbol>
    <symbol id="componentIcon" viewBox="0 0 32 32">
      <path d="M 8 1 h 24 v 30 h -24 z " stroke-width="1"/>
      <path d="M 1 5 h 16 v 8 h -16 z " stroke-width="1"/>
      <path d="M 1 18 h 16 v 8 h -16 z " stroke-width="1"/>
    </symbol>
    <style type="text/css"><![CDATA[
.classifier { 
  fill: cyan; 
  stroke: blue; 
  stroke-width: 1; 
} 

.package { 
  fill: lime; 
  stroke: green; 
  stroke-width: 1; 
} 
]]></style>
  </defs>
  <g>
    <rect x="0px" y="0px" width="570px" height="145px" stroke="Maroon" fill="LightYellow" rx="0px" ry="0px">
      <title></title>
    </rect>
    <g>
      <rect x="5px" y="5px" width="76px" height="27px" stroke="none" fill="none" rx="0px" ry="0px">
        <title></title>
      </rect>
      <g>
        <rect x="5px" y="5px" width="76px" height="27px" stroke="blue" fill="cyan" rx="0px" ry="0px">
          <title></title>
        </rect>
        <g>
          <use xlink:href="#classIcon" x="9" y="9" width="18px" height="18px" stroke="blue" fill="cyan">
            <title></title>
          </use>
          <text x="28" y="27" width="50px" height="18px" fill="blue" stroke="none" font-size="16px" font-family="Courier" font-weight="bold">
            <title></title>Class
          </text>
        </g>
      </g>
      <g>
        <rect x="5px" y="32px" width="76px" height="0px" stroke="blue" fill="cyan" rx="0px" ry="0px">
          <title></title>
        </rect>
      </g>
      <g>
        <rect x="5px" y="32px" width="76px" height="0px" stroke="blue" fill="cyan" rx="0px" ry="0px">
          <title></title>
        </rect>
      </g>
      <g>
        <rect x="5px" y="32px" width="76px" height="0px" stroke="blue" fill="cyan" rx="0px" ry="0px">
          <title></title>
        </rect>
      </g>
    </g>
    <g>
      <rect x="91px" y="32px" width="116px" height="27px" stroke="none" fill="none" rx="0px" ry="0px">
        <title></title>
      </rect>
      <g>
        <rect x="91px" y="32px" width="116px" height="27px" stroke="Purple" fill="Violet" rx="0px" ry="0px">
          <title></title>
        </rect>
        <g>
          <use xlink:href="#interfaceIcon" x="95" y="36" width="18px" height="18px" stroke="Purple" fill="Violet">
            <title></title>
          </use>
          <text x="114" y="54" width="90px" height="18px" fill="Purple" stroke="none" font-size="16px" font-family="Courier" font-weight="bold" font-style="italic">
            <title></title>Interface
          </text>
        </g>
      </g>
      <g>
        <rect x="91px" y="59px" width="116px" height="0px" stroke="Purple" fill="Violet" rx="0px" ry="0px">
          <title></title>
        </rect>
      </g>
      <g>
        <rect x="91px" y="59px" width="116px" height="0px" stroke="Purple" fill="Violet" rx="0px" ry="0px">
          <title></title>
        </rect>
      </g>
      <g>
        <rect x="91px" y="59px" width="116px" height="0px" stroke="Purple" fill="Violet" rx="0px" ry="0px">
          <title></title>
        </rect>
      </g>
    </g>
    <g>
      <rect x="217px" y="59px" width="136px" height="27px" stroke="none" fill="none" rx="0px" ry="0px">
        <title></title>
      </rect>
      <g>
        <rect x="217px" y="59px" width="136px" height="27px" stroke="maroon" fill="yellow" rx="0px" ry="0px">
          <title></title>
        </rect>
        <g>
          <use xlink:href="#enumIcon" x="221" y="63" width="18px" height="18px" stroke="maroon" fill="yellow">
            <title></title>
          </use>
          <text x="240" y="81" width="110px" height="18px" fill="maroon" stroke="none" font-size="16px" font-family="Courier" font-weight="bold">
            <title></title>Enumeration
          </text>
        </g>
      </g>
      <g>
        <rect x="217px" y="86px" width="136px" height="0px" stroke="maroon" fill="yellow" rx="0px" ry="0px">
          <title></title>
        </rect>
      </g>
      <g>
        <rect x="217px" y="86px" width="136px" height="0px" stroke="maroon" fill="yellow" rx="0px" ry="0px">
          <title></title>
        </rect>
      </g>
      <g>
        <rect x="217px" y="86px" width="136px" height="0px" stroke="maroon" fill="yellow" rx="0px" ry="0px">
          <title></title>
        </rect>
      </g>
    </g>
    <g>
      <rect x="363px" y="86px" width="96px" height="27px" stroke="none" fill="none" rx="0px" ry="0px">
        <title></title>
      </rect>
      <g>
        <rect x="363px" y="86px" width="96px" height="27px" stroke="Blue" fill="CornflowerBlue" rx="0px" ry="0px">
          <title></title>
        </rect>
        <g>
          <use xlink:href="#componentIcon" x="367" y="90" width="18px" height="18px" stroke="Blue" fill="CornflowerBlue">
            <title></title>
          </use>
          <text x="386" y="108" width="70px" height="18px" fill="Blue" stroke="none" font-size="16px" font-family="Courier" font-weight="bold">
            <title></title>swt.jar
          </text>
        </g>
      </g>
      <g>
        <rect x="363px" y="113px" width="96px" height="0px" stroke="Blue" fill="CornflowerBlue" rx="0px" ry="0px">
          <title></title>
        </rect>
      </g>
      <g>
        <rect x="363px" y="113px" width="96px" height="0px" stroke="Blue" fill="CornflowerBlue" rx="0px" ry="0px">
          <title></title>
        </rect>
      </g>
      <g>
        <rect x="363px" y="113px" width="96px" height="0px" stroke="Blue" fill="CornflowerBlue" rx="0px" ry="0px">
          <title></title>
        </rect>
      </g>
    </g>
    <g>
      <rect x="469px" y="113px" width="96px" height="27px" stroke="none" fill="none" rx="0px" ry="0px">
        <title></title>
      </rect>
      <g>
        <rect x="469px" y="113px" width="96px" height="27px" stroke="green" fill="SpringGreen" rx="0px" ry="0px">
          <title></title>
        </rect>
        <g>
          <use xlink:href="#packageIcon" x="473" y="117" width="18px" height="18px" stroke="green" fill="lime">
            <title></title>
          </use>
          <text x="492" y="135" width="70px" height="18px" fill="green" stroke="none" font-size="16px" font-family="Courier" font-weight="bold">
            <title></title>Package
          </text>
        </g>
      </g>
      <g>
        <rect x="469px" y="140px" width="96px" height="0px" stroke="green" fill="SpringGreen" rx="0px" ry="0px">
          <title></title>
        </rect>
      </g>
    </g>
  </g>
</svg>
