<?xml version="1.0" encoding="UTF-8"?>
<!DOCTYPE svg PUBLIC "-//W3C//DTD SVG 1.1//EN" "https://www.w3.org/Graphics/SVG/1.1/DTD/svg11.dtd">

<svg xmlns="http://www.w3.org/2000/svg" xmlns:xlink="http://www.w3.org/1999/xlink" width="106" height="26" version="1.1">
  <defs>
    <marker id="arrowAdorn" viewBox="0 0 16 16" refX="16" refY="8" markerWidth="16" markerHeight="16" orient="auto" stroke-width="1">
      <path stroke="navy" fill="none" d="M 0 0 L 16 8 L 0 16"/>
    </marker>
    <marker id="triangleAdorn" viewBox="0 0 16 16" refX="16" refY="8" markerWidth="16" markerHeight="16" orient="auto" stroke-width="1">
      <path stroke="blue" fill="white" d="M 0 0 L 16 8 L 0 16 Z"/>
    </marker>
    <symbol id="enumIcon" viewBox="0 0 32 32">
      <path d="M 1 1 h 30 v 30 h -30 v -30 z" stroke-width="1"/>
      <path d="M 1 10 h 30" stroke-width="1"/>
    </symbol>
    <symbol id="classIcon" viewBox="0 0 32 32">
      <path d="M 1 1 h 30 v 30 h -30 v -30 z M 1 10 h 30 M 1 21 h 30" stroke-width="1"/>
    </symbol>
    <symbol id="interfaceIcon" viewBox="0 0 32 32">
      <circle cx="16" cy="16" r="14" stroke-width="1"/>
    </symbol>
    <symbol id="packageIcon" viewBox="0 0 32 32">
      <path d="M 1 1 h 30 v 30 h -30 v -30 z" stroke-width="1"/>
      <path d="M 1 10 h 21 l 9 -9" stroke-width="1"/>
    </symbol>
    <symbol id="componentIcon" viewBox="0 0 32 32">
      <path d="M 8 1 h 24 v 30 h -24 z " stroke-width="1"/>
      <path d="M 1 5 h 16 v 8 h -16 z " stroke-width="1"/>
      <path d="M 1 18 h 16 v 8 h -16 z " stroke-width="1"/>
    </symbol>
    <style type="text/css"><![CDATA[
.classifier { 
  fill: cyan; 
  stroke: blue; 
  stroke-width: 1; 
} 

.package { 
  fill: lime; 
  stroke: green; 
  stroke-width: 1; 
} 
]]></style>
  </defs>
  <g>
    <rect x="0px" y="0px" width="106px" height="26px" stroke="Maroon" fill="LightYellow" rx="0px" ry="0px">
      <title></title>
    </rect>
    <use xlink:href="#packageIcon" x="5" y="5" width="16px" height="16px" stroke="DarkGreen" fill="SpringGreen">
      <title>Package tiny</title>
    </use>
    <use xlink:href="#interfaceIcon" x="25" y="5" width="16px" height="16px" stroke="Purple" fill="Violet">
      <title>Interface tiny</title>
    </use>
    <use xlink:href="#classIcon" x="45" y="5" width="16px" height="16px" stroke="blue" fill="cyan">
      <title>Class tiny</title>
    </use>
    <use xlink:href="#enumIcon" x="65" y="5" width="16px" height="16px" stroke="maroon" fill="yellow">
      <title>Package tiny</title>
    </use>
    <use xlink:href="#componentIcon" x="85" y="5" width="16px" height="16px" stroke="Blue" fill="CornflowerBlue">
      <title>Component tiny</title>
    </use>
  </g>
</svg>
