<?xml version="1.0" encoding="UTF-8"?>
<!DOCTYPE svg PUBLIC "-//W3C//DTD SVG 1.1//EN" "https://www.w3.org/Graphics/SVG/1.1/DTD/svg11.dtd">

<svg xmlns="http://www.w3.org/2000/svg" xmlns:xlink="http://www.w3.org/1999/xlink" width="574" height="328" version="1.1">
  <defs>
    <marker id="arrowAdorn" viewBox="0 0 16 16" refX="16" refY="8" markerWidth="16" markerHeight="16" orient="auto" stroke-width="1">
      <path stroke="navy" fill="none" d="M 0 0 L 16 8 L 0 16"/>
    </marker>
    <marker id="triangleAdorn" viewBox="0 0 16 16" refX="16" refY="8" markerWidth="16" markerHeight="16" orient="auto" stroke-width="1">
      <path stroke="blue" fill="white" d="M 0 0 L 16 8 L 0 16 Z"/>
    </marker>
    <symbol id="enumIcon" viewBox="0 0 32 32">
      <path d="M 1 1 h 30 v 30 h -30 v -30 z" stroke-width="1"/>
      <path d="M 1 10 h 30" stroke-width="1"/>
    </symbol>
    <symbol id="classIcon" viewBox="0 0 32 32">
      <path d="M 1 1 h 30 v 30 h -30 v -30 z M 1 10 h 30 M 1 21 h 30" stroke-width="1"/>
    </symbol>
    <symbol id="interfaceIcon" viewBox="0 0 32 32">
      <circle cx="16" cy="16" r="14" stroke-width="1"/>
    </symbol>
    <symbol id="packageIcon" viewBox="0 0 32 32">
      <path d="M 1 1 h 30 v 30 h -30 v -30 z" stroke-width="1"/>
      <path d="M 1 10 h 21 l 9 -9" stroke-width="1"/>
    </symbol>
    <symbol id="componentIcon" viewBox="0 0 32 32">
      <path d="M 8 1 h 24 v 30 h -24 z " stroke-width="1"/>
      <path d="M 1 5 h 16 v 8 h -16 z " stroke-width="1"/>
      <path d="M 1 18 h 16 v 8 h -16 z " stroke-width="1"/>
    </symbol>
    <style type="text/css"><![CDATA[
.classifier { 
  fill: cyan; 
  stroke: blue; 
  stroke-width: 1; 
} 

.package { 
  fill: lime; 
  stroke: green; 
  stroke-width: 1; 
} 
]]></style>
  </defs>
  <g>
    <rect x="0px" y="0px" width="574px" height="328px" stroke="Maroon" fill="LightYellow" rx="0px" ry="0px">
      <title></title>
    </rect>
    <g>
      <use xlink:href="#classIcon" x="30" y="30" width="18px" height="18px" stroke="Blue" fill="Cyan">
        <title></title>
      </use>
      <text x="49" y="48" width="50px" height="18px" fill="Blue" stroke="none" font-size="16px" font-family="Courier" font-weight="bold">
        <title></title>Class
      </text>
    </g>
    <g>
      <use xlink:href="#interfaceIcon" x="30" y="79" width="18px" height="18px" stroke="Purple" fill="Violet">
        <title></title>
      </use>
      <text x="49" y="97" width="90px" height="18px" fill="Indigo" stroke="none" font-size="16px" font-family="Courier" font-weight="bold" font-style="italic">
        <title></title>Interface
      </text>
    </g>
    <g>
      <use xlink:href="#enumIcon" x="30" y="128" width="18px" height="18px" stroke="maroon" fill="yellow">
        <title></title>
      </use>
      <text x="49" y="146" width="110px" height="18px" fill="maroon" stroke="none" font-size="16px" font-family="Courier" font-weight="bold">
        <title></title>Enumeration
      </text>
    </g>
    <g>
      <use xlink:href="#packageIcon" x="30" y="177" width="18px" height="18px" stroke="green" fill="SpringGreen">
        <title></title>
      </use>
      <text x="49" y="195" width="70px" height="18px" fill="green" stroke="none" font-size="16px" font-family="Courier" font-weight="bold">
        <title></title>Package
      </text>
    </g>
    <g>
      <use xlink:href="#componentIcon" x="30" y="226" width="18px" height="18px" stroke="Blue" fill="CornflowerBlue">
        <title></title>
      </use>
      <text x="49" y="244" width="70px" height="18px" fill="Blue" stroke="none" font-size="16px" font-family="Courier" font-weight="bold">
        <title></title>swt.jar
      </text>
    </g>
    <g>
      <rect x="188px" y="30px" width="186px" height="96px" stroke="none" fill="none" rx="0px" ry="0px">
        <title></title>
      </rect>
      <g>
        <rect x="188px" y="30px" width="186px" height="27px" stroke="green" fill="SpringGreen" rx="0px" ry="0px">
          <title></title>
        </rect>
        <g>
          <use xlink:href="#packageIcon" x="192" y="34" width="18px" height="18px" stroke="green" fill="lime">
            <title></title>
          </use>
          <text x="211" y="52" width="110px" height="18px" fill="green" stroke="none" font-size="16px" font-family="Courier" font-weight="bold">
            <title></title>eclipse.swt
          </text>
        </g>
      </g>
      <g>
        <rect x="188px" y="57px" width="186px" height="69px" stroke="green" fill="SpringGreen" rx="0px" ry="0px">
          <title></title>
        </rect>
        <g>
          <use xlink:href="#interfaceIcon" x="192" y="61" width="18px" height="18px" stroke="Purple" fill="Violet">
            <title></title>
          </use>
          <text x="211" y="79" width="130px" height="18px" fill="Purple" stroke="none" font-size="16px" font-family="Courier" font-weight="bold" font-style="italic">
            <title></title>MouseListener
          </text>
        </g>
        <g>
          <use xlink:href="#interfaceIcon" x="192" y="82" width="18px" height="18px" stroke="Purple" fill="Violet">
            <title></title>
          </use>
          <text x="211" y="100" width="160px" height="18px" fill="Purple" stroke="none" font-size="16px" font-family="Courier" font-weight="bold" font-style="italic">
            <title></title>KeyboardListener
          </text>
        </g>
        <g>
          <use xlink:href="#classIcon" x="192" y="103" width="18px" height="18px" stroke="blue" fill="Cyan">
            <title></title>
          </use>
          <text x="211" y="121" width="50px" height="18px" fill="maroon" stroke="none" font-size="16px" font-family="Courier" font-weight="bold" font-style="italic">
            <title></title>Event
          </text>
        </g>
      </g>
    </g>
    <g>
      <rect x="188px" y="156px" width="126px" height="27px" stroke="none" fill="none" rx="0px" ry="0px">
        <title></title>
      </rect>
      <g>
        <rect x="188px" y="156px" width="126px" height="27px" stroke="blue" fill="cyan" rx="0px" ry="0px">
          <title></title>
        </rect>
        <g>
          <use xlink:href="#classIcon" x="192" y="160" width="18px" height="18px" stroke="blue" fill="cyan">
            <title></title>
          </use>
          <text x="211" y="178" width="100px" height="18px" fill="blue" stroke="none" font-size="16px" font-family="Courier" font-weight="bold">
            <title></title>PaintEvent
          </text>
        </g>
      </g>
      <g>
        <rect x="188px" y="183px" width="126px" height="0px" stroke="blue" fill="cyan" rx="0px" ry="0px">
          <title></title>
        </rect>
      </g>
      <g>
        <rect x="188px" y="183px" width="126px" height="0px" stroke="blue" fill="cyan" rx="0px" ry="0px">
          <title></title>
        </rect>
      </g>
      <g>
        <rect x="188px" y="183px" width="126px" height="0px" stroke="blue" fill="cyan" rx="0px" ry="0px">
          <title></title>
        </rect>
      </g>
    </g>
    <g>
      <rect x="188px" y="206px" width="126px" height="27px" stroke="none" fill="none" rx="0px" ry="0px">
        <title></title>
      </rect>
      <g>
        <rect x="188px" y="206px" width="126px" height="27px" stroke="Indigo" fill="Violet" rx="0px" ry="0px">
          <title></title>
        </rect>
        <g>
          <use xlink:href="#interfaceIcon" x="192" y="210" width="18px" height="18px" stroke="Purple" fill="Violet">
            <title></title>
          </use>
          <text x="211" y="228" width="100px" height="18px" fill="Purple" stroke="none" font-size="16px" font-family="Courier" font-weight="bold" font-style="italic">
            <title></title>PaintEvent
          </text>
        </g>
      </g>
      <g>
        <rect x="188px" y="233px" width="126px" height="0px" stroke="Purple" fill="Violet" rx="0px" ry="0px">
          <title></title>
        </rect>
      </g>
      <g>
        <rect x="188px" y="233px" width="126px" height="0px" stroke="Purple" fill="Violet" rx="0px" ry="0px">
          <title></title>
        </rect>
      </g>
      <g>
        <rect x="188px" y="233px" width="126px" height="0px" stroke="Purple" fill="Violet" rx="0px" ry="0px">
          <title></title>
        </rect>
      </g>
    </g>
    <g>
      <rect x="188px" y="256px" width="156px" height="27px" stroke="none" fill="none" rx="0px" ry="0px">
        <title></title>
      </rect>
      <g>
        <rect x="188px" y="256px" width="156px" height="27px" stroke="DarkSlateBlue" fill="CornflowerBlue" rx="0px" ry="0px">
          <title></title>
        </rect>
        <g>
          <use xlink:href="#componentIcon" x="192" y="260" width="18px" height="18px" stroke="Blue" fill="CornflowerBlue">
            <title></title>
          </use>
          <text x="211" y="278" width="130px" height="18px" fill="Blue" stroke="none" font-size="16px" font-family="Courier" font-weight="bold">
            <title></title>ClassNode.jar
          </text>
        </g>
      </g>
      <g>
        <rect x="188px" y="283px" width="156px" height="0px" stroke="Blue" fill="CornflowerBlue" rx="0px" ry="0px">
          <title></title>
        </rect>
      </g>
      <g>
        <rect x="188px" y="283px" width="156px" height="0px" stroke="Blue" fill="CornflowerBlue" rx="0px" ry="0px">
          <title></title>
        </rect>
      </g>
      <g>
        <rect x="188px" y="283px" width="156px" height="0px" stroke="Blue" fill="CornflowerBlue" rx="0px" ry="0px">
          <title></title>
        </rect>
      </g>
    </g>
    <g>
      <rect x="388px" y="110px" width="56px" height="27px" stroke="none" fill="none" rx="0px" ry="0px">
        <title></title>
      </rect>
      <g>
        <rect x="388px" y="110px" width="56px" height="27px" stroke="blue" fill="cyan" rx="0px" ry="0px">
          <title></title>
        </rect>
        <g>
          <use xlink:href="#classIcon" x="392" y="114" width="18px" height="18px" stroke="blue" fill="cyan">
            <title></title>
          </use>
          <text x="411" y="132" width="30px" height="18px" fill="blue" stroke="none" font-size="16px" font-family="Courier" font-weight="bold">
            <title></title>Dog
          </text>
        </g>
      </g>
      <g>
        <rect x="388px" y="137px" width="56px" height="0px" stroke="blue" fill="cyan" rx="0px" ry="0px">
          <title></title>
        </rect>
      </g>
      <g>
        <rect x="388px" y="137px" width="56px" height="0px" stroke="blue" fill="cyan" rx="0px" ry="0px">
          <title></title>
        </rect>
      </g>
      <g>
        <rect x="388px" y="137px" width="56px" height="0px" stroke="blue" fill="cyan" rx="0px" ry="0px">
          <title></title>
        </rect>
      </g>
    </g>
    <g>
      <rect x="388px" y="30px" width="86px" height="27px" stroke="none" fill="none" rx="0px" ry="0px">
        <title></title>
      </rect>
      <g>
        <rect x="388px" y="30px" width="86px" height="27px" stroke="blue" fill="cyan" rx="0px" ry="0px">
          <title></title>
        </rect>
        <g>
          <use xlink:href="#classIcon" x="392" y="34" width="18px" height="18px" stroke="blue" fill="cyan">
            <title></title>
          </use>
          <text x="411" y="52" width="60px" height="18px" fill="blue" stroke="none" font-size="16px" font-family="Courier" font-weight="bold">
            <title></title>Animal
          </text>
        </g>
      </g>
      <g>
        <rect x="388px" y="57px" width="86px" height="0px" stroke="blue" fill="cyan" rx="0px" ry="0px">
          <title></title>
        </rect>
      </g>
      <g>
        <rect x="388px" y="57px" width="86px" height="0px" stroke="blue" fill="cyan" rx="0px" ry="0px">
          <title></title>
        </rect>
      </g>
      <g>
        <rect x="388px" y="57px" width="86px" height="0px" stroke="blue" fill="cyan" rx="0px" ry="0px">
          <title></title>
        </rect>
      </g>
    </g>
    <path stroke="navy" fill="none" d="M 416 110 L 431 57 " opacity="1" marker-end="url(#triangleAdorn)"/>
    <g>
      <rect x="388px" y="260px" width="66px" height="27px" stroke="none" fill="none" rx="0px" ry="0px">
        <title></title>
      </rect>
      <g>
        <rect x="388px" y="260px" width="66px" height="27px" stroke="blue" fill="cyan" rx="0px" ry="0px">
          <title></title>
        </rect>
        <g>
          <use xlink:href="#classIcon" x="392" y="264" width="18px" height="18px" stroke="blue" fill="cyan">
            <title></title>
          </use>
          <text x="411" y="282" width="40px" height="18px" fill="blue" stroke="none" font-size="16px" font-family="Courier" font-weight="bold">
            <title></title>Fish
          </text>
        </g>
      </g>
      <g>
        <rect x="388px" y="287px" width="66px" height="0px" stroke="blue" fill="cyan" rx="0px" ry="0px">
          <title></title>
        </rect>
      </g>
      <g>
        <rect x="388px" y="287px" width="66px" height="0px" stroke="blue" fill="cyan" rx="0px" ry="0px">
          <title></title>
        </rect>
      </g>
      <g>
        <rect x="388px" y="287px" width="66px" height="0px" stroke="blue" fill="cyan" rx="0px" ry="0px">
          <title></title>
        </rect>
      </g>
    </g>
    <g>
      <rect x="388px" y="180px" width="66px" height="27px" stroke="none" fill="none" rx="0px" ry="0px">
        <title></title>
      </rect>
      <g>
        <rect x="388px" y="180px" width="66px" height="27px" stroke="Purple" fill="Violet" rx="0px" ry="0px">
          <title></title>
        </rect>
        <g>
          <use xlink:href="#interfaceIcon" x="392" y="184" width="18px" height="18px" stroke="Purple" fill="Violet">
            <title></title>
          </use>
          <text x="411" y="202" width="40px" height="18px" fill="Purple" stroke="none" font-size="16px" font-family="Courier" font-weight="bold" font-style="italic">
            <title></title>Swim
          </text>
        </g>
      </g>
      <g>
        <rect x="388px" y="207px" width="66px" height="0px" stroke="Purple" fill="Violet" rx="0px" ry="0px">
          <title></title>
        </rect>
      </g>
      <g>
        <rect x="388px" y="207px" width="66px" height="0px" stroke="Purple" fill="Violet" rx="0px" ry="0px">
          <title></title>
        </rect>
      </g>
      <g>
        <rect x="388px" y="207px" width="66px" height="0px" stroke="Purple" fill="Violet" rx="0px" ry="0px">
          <title></title>
        </rect>
      </g>
    </g>
    <path stroke="navy" fill="none" d="M 421 260 L 421 207 " opacity="1" stroke-dasharray="5" marker-end="url(#triangleAdorn)"/>
    <g>
      <rect x="488px" y="110px" width="66px" height="27px" stroke="none" fill="none" rx="0px" ry="0px">
        <title></title>
      </rect>
      <g>
        <rect x="488px" y="110px" width="66px" height="27px" stroke="blue" fill="cyan" rx="0px" ry="0px">
          <title></title>
        </rect>
        <g>
          <use xlink:href="#classIcon" x="492" y="114" width="18px" height="18px" stroke="blue" fill="cyan">
            <title></title>
          </use>
          <text x="511" y="132" width="40px" height="18px" fill="blue" stroke="none" font-size="16px" font-family="Courier" font-weight="bold">
            <title></title>Tree
          </text>
        </g>
      </g>
      <g>
        <rect x="488px" y="137px" width="66px" height="0px" stroke="blue" fill="cyan" rx="0px" ry="0px">
          <title></title>
        </rect>
      </g>
      <g>
        <rect x="488px" y="137px" width="66px" height="0px" stroke="blue" fill="cyan" rx="0px" ry="0px">
          <title></title>
        </rect>
      </g>
      <g>
        <rect x="488px" y="137px" width="66px" height="0px" stroke="blue" fill="cyan" rx="0px" ry="0px">
          <title></title>
        </rect>
      </g>
    </g>
    <g>
      <rect x="488px" y="30px" width="66px" height="27px" stroke="none" fill="none" rx="0px" ry="0px">
        <title></title>
      </rect>
      <g>
        <rect x="488px" y="30px" width="66px" height="27px" stroke="blue" fill="cyan" rx="0px" ry="0px">
          <title></title>
        </rect>
        <g>
          <use xlink:href="#classIcon" x="492" y="34" width="18px" height="18px" stroke="blue" fill="cyan">
            <title></title>
          </use>
          <text x="511" y="52" width="40px" height="18px" fill="blue" stroke="none" font-size="16px" font-family="Courier" font-weight="bold">
            <title></title>Leaf
          </text>
        </g>
      </g>
      <g>
        <rect x="488px" y="57px" width="66px" height="0px" stroke="blue" fill="cyan" rx="0px" ry="0px">
          <title></title>
        </rect>
      </g>
      <g>
        <rect x="488px" y="57px" width="66px" height="0px" stroke="blue" fill="cyan" rx="0px" ry="0px">
          <title></title>
        </rect>
      </g>
      <g>
        <rect x="488px" y="57px" width="66px" height="0px" stroke="blue" fill="cyan" rx="0px" ry="0px">
          <title></title>
        </rect>
      </g>
    </g>
    <path stroke="navy" fill="none" d="M 521 110 L 521 57 " opacity="1" marker-end="url(#arrowAdorn)"/>
    <g>
      <rect x="488px" y="180px" width="76px" height="27px" stroke="none" fill="none" rx="0px" ry="0px">
        <title></title>
      </rect>
      <g>
        <rect x="488px" y="180px" width="76px" height="27px" stroke="green" fill="SpringGreen" rx="0px" ry="0px">
          <title></title>
        </rect>
        <g>
          <use xlink:href="#packageIcon" x="492" y="184" width="18px" height="18px" stroke="green" fill="lime">
            <title></title>
          </use>
          <text x="511" y="202" width="50px" height="18px" fill="green" stroke="none" font-size="16px" font-family="Courier" font-weight="bold">
            <title></title>Chess
          </text>
        </g>
      </g>
      <g>
        <rect x="488px" y="207px" width="76px" height="0px" stroke="green" fill="SpringGreen" rx="0px" ry="0px">
          <title></title>
        </rect>
      </g>
    </g>
    <g>
      <rect x="488px" y="260px" width="66px" height="27px" stroke="none" fill="none" rx="0px" ry="0px">
        <title></title>
      </rect>
      <g>
        <rect x="488px" y="260px" width="66px" height="27px" stroke="green" fill="SpringGreen" rx="0px" ry="0px">
          <title></title>
        </rect>
        <g>
          <use xlink:href="#packageIcon" x="492" y="264" width="18px" height="18px" stroke="green" fill="lime">
            <title></title>
          </use>
          <text x="511" y="282" width="40px" height="18px" fill="green" stroke="none" font-size="16px" font-family="Courier" font-weight="bold">
            <title></title>Game
          </text>
        </g>
      </g>
      <g>
        <rect x="488px" y="287px" width="66px" height="0px" stroke="green" fill="SpringGreen" rx="0px" ry="0px">
          <title></title>
        </rect>
      </g>
    </g>
    <path stroke="navy" fill="none" d="M 526 207 L 521 260 " opacity="1" stroke-dasharray="5" marker-end="url(#arrowAdorn)"/>
  </g>
</svg>
