<?xml version="1.0" encoding="UTF-8"?>
<!DOCTYPE svg PUBLIC "-//W3C//DTD SVG 1.1//EN" "https://www.w3.org/Graphics/SVG/1.1/DTD/svg11.dtd">

<svg xmlns="http://www.w3.org/2000/svg" xmlns:xlink="http://www.w3.org/1999/xlink" width="821" height="335" version="1.1">
  <defs>
    <marker id="arrowAdorn" viewBox="0 0 16 16" refX="16" refY="8" markerWidth="16" markerHeight="16" orient="auto" stroke-width="1">
      <path stroke="navy" fill="none" d="M 0 0 L 16 8 L 0 16"/>
    </marker>
    <marker id="triangleAdorn" viewBox="0 0 16 16" refX="16" refY="8" markerWidth="16" markerHeight="16" orient="auto" stroke-width="1">
      <path stroke="blue" fill="white" d="M 0 0 L 16 8 L 0 16 Z"/>
    </marker>
    <symbol id="enumIcon" viewBox="0 0 32 32">
      <path d="M 1 1 h 30 v 30 h -30 v -30 z" stroke-width="1"/>
      <path d="M 1 10 h 30" stroke-width="1"/>
    </symbol>
    <symbol id="classIcon" viewBox="0 0 32 32">
      <path d="M 1 1 h 30 v 30 h -30 v -30 z M 1 10 h 30 M 1 21 h 30" stroke-width="1"/>
    </symbol>
    <symbol id="interfaceIcon" viewBox="0 0 32 32">
      <circle cx="16" cy="16" r="14" stroke-width="1"/>
    </symbol>
    <symbol id="packageIcon" viewBox="0 0 32 32">
      <path d="M 1 1 h 30 v 30 h -30 v -30 z" stroke-width="1"/>
      <path d="M 1 10 h 21 l 9 -9" stroke-width="1"/>
    </symbol>
    <symbol id="componentIcon" viewBox="0 0 32 32">
      <path d="M 8 1 h 24 v 30 h -24 z " stroke-width="1"/>
      <path d="M 1 5 h 16 v 8 h -16 z " stroke-width="1"/>
      <path d="M 1 18 h 16 v 8 h -16 z " stroke-width="1"/>
    </symbol>
    <style type="text/css"><![CDATA[
.classifier { 
  fill: cyan; 
  stroke: blue; 
  stroke-width: 1; 
} 

.package { 
  fill: lime; 
  stroke: green; 
  stroke-width: 1; 
} 
]]></style>
  </defs>
  <g>
    <rect x="0px" y="0px" width="821px" height="335px" stroke="Maroon" fill="LightYellow" rx="0px" ry="0px">
      <title></title>
    </rect>
    <g>
      <rect x="300px" y="5px" width="156px" height="27px" stroke="none" fill="none" rx="0px" ry="0px">
        <title></title>
      </rect>
      <g>
        <rect x="300px" y="5px" width="156px" height="27px" stroke="Brown" fill="Plum" rx="0px" ry="0px">
          <title></title>
        </rect>
        <g>
          <use xlink:href="#componentIcon" x="304" y="9" width="18px" height="18px" stroke="Blue" fill="CornflowerBlue">
            <title></title>
          </use>
          <text x="323" y="27" width="130px" height="18px" fill="Blue" stroke="none" font-size="16px" font-family="Courier" font-weight="bold">
            <title></title>Component.jar
          </text>
        </g>
      </g>
      <g>
        <rect x="300px" y="32px" width="156px" height="0px" stroke="Brown" fill="Plum" rx="0px" ry="0px">
          <title></title>
        </rect>
      </g>
      <g>
        <rect x="300px" y="32px" width="156px" height="0px" stroke="Brown" fill="Plum" rx="0px" ry="0px">
          <title></title>
        </rect>
      </g>
      <g>
        <rect x="300px" y="32px" width="156px" height="0px" stroke="Brown" fill="Plum" rx="0px" ry="0px">
          <title></title>
        </rect>
      </g>
    </g>
    <g>
      <rect x="5px" y="5px" width="206px" height="96px" stroke="none" fill="none" rx="0px" ry="0px">
        <title></title>
      </rect>
      <g>
        <rect x="5px" y="5px" width="206px" height="27px" stroke="Blue" fill="SkyBlue" rx="0px" ry="0px">
          <title></title>
        </rect>
        <g>
          <use xlink:href="#componentIcon" x="9" y="9" width="18px" height="18px" stroke="Blue" fill="CornflowerBlue">
            <title></title>
          </use>
          <text x="28" y="27" width="180px" height="18px" fill="Blue" stroke="none" font-size="16px" font-family="Courier" font-weight="bold">
            <title></title>UserComponent1.jar
          </text>
        </g>
      </g>
      <g>
        <rect x="5px" y="32px" width="206px" height="0px" stroke="Blue" fill="SkyBlue" rx="0px" ry="0px">
          <title></title>
        </rect>
      </g>
      <g>
        <rect x="5px" y="32px" width="206px" height="0px" stroke="Blue" fill="SkyBlue" rx="0px" ry="0px">
          <title></title>
        </rect>
      </g>
      <g>
        <rect x="5px" y="32px" width="206px" height="69px" stroke="Blue" fill="SkyBlue" rx="0px" ry="0px">
          <title></title>
        </rect>
        <g>
          <use xlink:href="#packageIcon" x="9" y="36" width="18px" height="18px" stroke="green" fill="lime">
            <title></title>
          </use>
          <text x="28" y="54" width="120px" height="18px" fill="blue" stroke="none" font-size="16px" font-family="Courier" font-weight="bold">
            <title></title>UserPackage1
          </text>
        </g>
        <g>
          <use xlink:href="#packageIcon" x="9" y="57" width="18px" height="18px" stroke="green" fill="lime">
            <title></title>
          </use>
          <text x="28" y="75" width="120px" height="18px" fill="blue" stroke="none" font-size="16px" font-family="Courier" font-weight="bold">
            <title></title>UserPackage2
          </text>
        </g>
        <g>
          <use xlink:href="#packageIcon" x="9" y="78" width="18px" height="18px" stroke="green" fill="lime">
            <title></title>
          </use>
          <text x="28" y="96" width="120px" height="18px" fill="blue" stroke="none" font-size="16px" font-family="Courier" font-weight="bold">
            <title></title>UserPackage3
          </text>
        </g>
      </g>
    </g>
    <path stroke="navy" fill="none" d="M 211 53 L 255 53 L 255 18 L 300 18 " opacity="1" stroke-dasharray="5" marker-end="url(#arrowAdorn)"/>
    <g>
      <rect x="5px" y="151px" width="206px" height="75px" stroke="none" fill="none" rx="0px" ry="0px">
        <title></title>
      </rect>
      <g>
        <rect x="5px" y="151px" width="206px" height="27px" stroke="Blue" fill="SkyBlue" rx="0px" ry="0px">
          <title></title>
        </rect>
        <g>
          <use xlink:href="#componentIcon" x="9" y="155" width="18px" height="18px" stroke="Blue" fill="CornflowerBlue">
            <title></title>
          </use>
          <text x="28" y="173" width="180px" height="18px" fill="Blue" stroke="none" font-size="16px" font-family="Courier" font-weight="bold">
            <title></title>UserComponent2.jar
          </text>
        </g>
      </g>
      <g>
        <rect x="5px" y="178px" width="206px" height="0px" stroke="Blue" fill="SkyBlue" rx="0px" ry="0px">
          <title></title>
        </rect>
      </g>
      <g>
        <rect x="5px" y="178px" width="206px" height="0px" stroke="Blue" fill="SkyBlue" rx="0px" ry="0px">
          <title></title>
        </rect>
      </g>
      <g>
        <rect x="5px" y="178px" width="206px" height="48px" stroke="Blue" fill="SkyBlue" rx="0px" ry="0px">
          <title></title>
        </rect>
        <g>
          <use xlink:href="#packageIcon" x="9" y="182" width="18px" height="18px" stroke="green" fill="lime">
            <title></title>
          </use>
          <text x="28" y="200" width="120px" height="18px" fill="blue" stroke="none" font-size="16px" font-family="Courier" font-weight="bold">
            <title></title>UserPackage1
          </text>
        </g>
        <g>
          <use xlink:href="#packageIcon" x="9" y="203" width="18px" height="18px" stroke="green" fill="lime">
            <title></title>
          </use>
          <text x="28" y="221" width="120px" height="18px" fill="blue" stroke="none" font-size="16px" font-family="Courier" font-weight="bold">
            <title></title>UserPackage2
          </text>
        </g>
      </g>
    </g>
    <path stroke="navy" fill="none" d="M 211 188 L 255 188 L 255 18 L 300 18 " opacity="1" stroke-dasharray="5" marker-end="url(#arrowAdorn)"/>
    <g>
      <rect x="600px" y="5px" width="206px" height="75px" stroke="none" fill="none" rx="0px" ry="0px">
        <title></title>
      </rect>
      <g>
        <rect x="600px" y="5px" width="206px" height="27px" stroke="Green" fill="LightGreen" rx="0px" ry="0px">
          <title></title>
        </rect>
        <g>
          <use xlink:href="#componentIcon" x="604" y="9" width="18px" height="18px" stroke="Blue" fill="CornflowerBlue">
            <title></title>
          </use>
          <text x="623" y="27" width="180px" height="18px" fill="Blue" stroke="none" font-size="16px" font-family="Courier" font-weight="bold">
            <title></title>UsedComponent1.jar
          </text>
        </g>
      </g>
      <g>
        <rect x="600px" y="32px" width="206px" height="0px" stroke="Green" fill="LightGreen" rx="0px" ry="0px">
          <title></title>
        </rect>
      </g>
      <g>
        <rect x="600px" y="32px" width="206px" height="0px" stroke="Green" fill="LightGreen" rx="0px" ry="0px">
          <title></title>
        </rect>
      </g>
      <g>
        <rect x="600px" y="32px" width="206px" height="48px" stroke="Green" fill="LightGreen" rx="0px" ry="0px">
          <title></title>
        </rect>
        <g>
          <use xlink:href="#packageIcon" x="604" y="36" width="18px" height="18px" stroke="green" fill="lime">
            <title></title>
          </use>
          <text x="623" y="54" width="120px" height="18px" fill="blue" stroke="none" font-size="16px" font-family="Courier" font-weight="bold">
            <title></title>UsedPackage1
          </text>
        </g>
        <g>
          <use xlink:href="#packageIcon" x="604" y="57" width="18px" height="18px" stroke="green" fill="lime">
            <title></title>
          </use>
          <text x="623" y="75" width="120px" height="18px" fill="blue" stroke="none" font-size="16px" font-family="Courier" font-weight="bold">
            <title></title>UsedPackage2
          </text>
        </g>
      </g>
    </g>
    <path stroke="navy" fill="none" d="M 456 18 L 528 18 L 528 42 L 600 42 " opacity="1" stroke-dasharray="5" marker-end="url(#arrowAdorn)"/>
    <g>
      <rect x="600px" y="130px" width="206px" height="54px" stroke="none" fill="none" rx="0px" ry="0px">
        <title></title>
      </rect>
      <g>
        <rect x="600px" y="130px" width="206px" height="27px" stroke="Green" fill="LightGreen" rx="0px" ry="0px">
          <title></title>
        </rect>
        <g>
          <use xlink:href="#componentIcon" x="604" y="134" width="18px" height="18px" stroke="Blue" fill="CornflowerBlue">
            <title></title>
          </use>
          <text x="623" y="152" width="180px" height="18px" fill="Blue" stroke="none" font-size="16px" font-family="Courier" font-weight="bold">
            <title></title>UsedComponent2.jar
          </text>
        </g>
      </g>
      <g>
        <rect x="600px" y="157px" width="206px" height="0px" stroke="Green" fill="LightGreen" rx="0px" ry="0px">
          <title></title>
        </rect>
      </g>
      <g>
        <rect x="600px" y="157px" width="206px" height="0px" stroke="Green" fill="LightGreen" rx="0px" ry="0px">
          <title></title>
        </rect>
      </g>
      <g>
        <rect x="600px" y="157px" width="206px" height="27px" stroke="Green" fill="LightGreen" rx="0px" ry="0px">
          <title></title>
        </rect>
        <g>
          <use xlink:href="#packageIcon" x="604" y="161" width="18px" height="18px" stroke="green" fill="lime">
            <title></title>
          </use>
          <text x="623" y="179" width="120px" height="18px" fill="blue" stroke="none" font-size="16px" font-family="Courier" font-weight="bold">
            <title></title>UsedPackage3
          </text>
        </g>
      </g>
    </g>
    <path stroke="navy" fill="none" d="M 456 18 L 528 18 L 528 157 L 600 157 " opacity="1" stroke-dasharray="5" marker-end="url(#arrowAdorn)"/>
    <g>
      <rect x="600px" y="234px" width="206px" height="96px" stroke="none" fill="none" rx="0px" ry="0px">
        <title></title>
      </rect>
      <g>
        <rect x="600px" y="234px" width="206px" height="27px" stroke="Green" fill="LightGreen" rx="0px" ry="0px">
          <title></title>
        </rect>
        <g>
          <use xlink:href="#componentIcon" x="604" y="238" width="18px" height="18px" stroke="Blue" fill="CornflowerBlue">
            <title></title>
          </use>
          <text x="623" y="256" width="180px" height="18px" fill="Blue" stroke="none" font-size="16px" font-family="Courier" font-weight="bold">
            <title></title>UsedComponent3.jar
          </text>
        </g>
      </g>
      <g>
        <rect x="600px" y="261px" width="206px" height="0px" stroke="Green" fill="LightGreen" rx="0px" ry="0px">
          <title></title>
        </rect>
      </g>
      <g>
        <rect x="600px" y="261px" width="206px" height="0px" stroke="Green" fill="LightGreen" rx="0px" ry="0px">
          <title></title>
        </rect>
      </g>
      <g>
        <rect x="600px" y="261px" width="206px" height="69px" stroke="Green" fill="LightGreen" rx="0px" ry="0px">
          <title></title>
        </rect>
        <g>
          <use xlink:href="#packageIcon" x="604" y="265" width="18px" height="18px" stroke="green" fill="lime">
            <title></title>
          </use>
          <text x="623" y="283" width="120px" height="18px" fill="blue" stroke="none" font-size="16px" font-family="Courier" font-weight="bold">
            <title></title>UsedPackage4
          </text>
        </g>
        <g>
          <use xlink:href="#packageIcon" x="604" y="286" width="18px" height="18px" stroke="green" fill="lime">
            <title></title>
          </use>
          <text x="623" y="304" width="120px" height="18px" fill="blue" stroke="none" font-size="16px" font-family="Courier" font-weight="bold">
            <title></title>UsedPackage5
          </text>
        </g>
        <g>
          <use xlink:href="#packageIcon" x="604" y="307" width="18px" height="18px" stroke="green" fill="lime">
            <title></title>
          </use>
          <text x="623" y="325" width="120px" height="18px" fill="blue" stroke="none" font-size="16px" font-family="Courier" font-weight="bold">
            <title></title>UsedPackage6
          </text>
        </g>
      </g>
    </g>
    <path stroke="navy" fill="none" d="M 456 18 L 528 18 L 528 282 L 600 282 " opacity="1" stroke-dasharray="5" marker-end="url(#arrowAdorn)"/>
  </g>
</svg>
